<svg width="23" height="34" viewBox="0 0 23 34" fill="none" xmlns="http://www.w3.org/2000/svg">
<path d="M3.46372 1.8705C5.39291 1.62192 7.99777 -0.690209 5.386 3.42744C4.06111 5.51622 2.71835 8.0867 1.26683 9.79673C-0.296329 11.6383 5.44519 7.37224 7.17098 5.69208C10.4885 2.46228 7.96707 8.00422 6.89636 9.23057C4.44081 12.0431 9.8931 8.9742 10.8782 8.52287C14.3512 6.93172 13.5236 7.91908 13.3497 10.7875C13.2844 11.8644 14.2013 11.2457 12.3886 14.6091C11.0321 17.1261 8.90984 18.7999 12.114 17.4399C14.7242 16.3319 10.796 20.4092 11.1528 20.6953C12.6693 21.9112 18.0587 17.9412 16.7824 19.4214C16.2324 20.0593 11.5472 24.6838 13.3497 24.7999C15.8274 24.9596 16.1144 26.4793 18.0181 24.5169C20.1117 22.3588 19.1528 25.8949 18.0181 27.0646C15.1846 29.9855 21.3708 27.3109 21.7254 27.6307C22.1923 28.0519 19.0175 32.1295 18.5674 32.7262C17.9454 33.5505 21.4214 32.3622 22 31.1692" stroke="black" stroke-linecap="round"/>
</svg>
