<svg width="69" height="78" viewBox="0 0 69 78" fill="none" xmlns="http://www.w3.org/2000/svg">
<path d="M29.6243 34.6312C26.1744 34.6312 23.7611 42.8519 25.9733 45.6961C28.3607 48.7657 33.9412 50.1671 37.6715 48.1922C41.5836 46.1211 42.3648 39.9206 39.3852 36.9411C37.7557 35.3115 37.9039 33.29 34.9891 33.29C32.7538 33.29 30.5184 33.29 28.2831 33.29" stroke="black" stroke-linecap="round"/>
<path d="M28.2831 33.29C27.9754 30.5209 24.3511 27.7607 23.738 24.5722C23.0795 21.1485 22.2477 17.8654 22.2477 14.3642C22.2477 9.28024 21.9253 4.05098 27.4635 1.92091C29.3554 1.19327 30.7635 1.02188 32.8283 1.10129C35.0269 1.18585 35.0406 5.02859 35.5107 6.6151C36.5223 10.0294 35.5981 14.7896 35.6597 18.2388C35.7073 20.9063 36.3303 23.5081 36.3303 26.2487C36.3303 27.8135 36.3303 29.3782 36.3303 30.9429C36.3303 32.1835 37.7491 28.665 38.3421 27.6272C39.7365 25.1871 43.9297 22.6438 46.5383 21.7408C48.7921 20.9607 54.4436 20.1903 55.6286 22.5604C56.9861 25.2754 57.0312 30.0247 54.7718 32.2841C52.3867 34.6692 49.4213 37.9438 46.054 38.6921C44.7544 38.9809 40.8689 39.7826 42.1049 39.2882C43.764 38.6245 45.4728 37.9581 47.0599 37.1646C50.3967 35.4962 56.2092 36.5484 58.4601 39.4744C61.2088 43.0479 66.769 47.0415 67.8112 51.7315C68.6805 55.6433 63.2385 58.1783 60.1738 58.7355C55.9954 59.4952 51.4427 58.7661 47.7305 56.91C44.2389 55.1642 41.8395 53.2543 39.1617 50.5766C37.4069 48.8217 38.9199 51.3355 39.0127 52.5884C39.2253 55.4586 40.3539 58.1241 40.3539 61.0826C40.3539 66.4396 39.9112 76.8789 32.642 76.8789C25.5639 76.8789 24.9301 65.1662 24.9301 60.114C24.9301 57.5593 26.4492 53.1193 28.1341 51.2472C29.9091 49.275 26.2594 51.0865 25.7498 51.5452C24.1014 53.0288 21.36 54.5709 19.23 55.7178C15.2584 57.8564 9.73494 59.755 5.14747 58.7355C1.99077 58.034 1.45918 52.5169 1.45918 50.055C1.45918 46.2832 1.17084 42.6849 2.9494 39.3254C4.61624 36.1769 9.62289 36.643 12.5241 36.643C15.824 36.643 18.2882 37.3651 21.2418 38.0215C23.3615 38.4925 22.9181 38.8813 20.8693 37.6862C18.9512 36.5673 16.8606 35.7226 14.8712 34.7802C11.4616 33.1652 10.8476 31.5672 10.8476 27.9252C10.8476 23.4378 10.3639 21.8898 15.2065 21.8898C20.9816 21.8898 25.8292 27.0411 28.2831 31.9488" stroke="black" stroke-linecap="round"/>
</svg>
