<svg width="1645" height="17" viewBox="0 0 1645 17" fill="none" xmlns="http://www.w3.org/2000/svg">
<path d="M805.338 2.178C805.674 3.102 805.38 3.942 805.338 4.824L805.114 9.136L805.968 8.884C806.024 8.562 805.954 8.226 805.982 7.904C806.08 6.868 806.22 5.09 806.43 4.152C806.458 4.068 807.004 2.794 807.06 2.696C807.214 2.43 807.508 2.22 807.816 2.29C807.928 2.668 807.634 2.808 807.55 3.018C806.92 4.642 806.766 6.784 806.738 8.548C808.6 8.52 807.172 8.926 806.85 9.318C806.262 10.032 807.088 12.342 806.738 13.266C805.926 13.196 806.262 12.412 806.192 11.796C806.122 11.082 805.828 10.284 806.094 9.612L805.03 10.158C804.974 10.886 805.03 11.628 805.044 12.356C805.058 12.496 805.142 12.552 804.96 12.678C804.33 12.832 804.302 10.83 804.26 10.438L803.882 10.536C803.322 9.962 804.176 9.892 804.344 9.402C804.624 8.562 804.512 7.036 804.582 6.126C804.624 5.608 804.75 4.992 804.792 4.474C804.848 3.774 804.512 2.234 805.338 2.178ZM812.653 3.2C812.681 3.438 812.541 3.55 812.415 3.648C811.981 3.956 811.099 4.194 810.609 4.376L810.875 5.076L810.525 5.272L809.993 7.638C810.637 7.274 811.127 6.812 811.855 6.826C811.855 6.91 811.869 7.036 811.855 7.106C811.757 7.4 810.091 8.184 809.811 8.506C809.489 8.884 809.181 11.53 809.867 11.614C809.923 11.614 810.721 11.306 810.819 11.236C811.225 10.984 811.743 10.27 812.079 9.864C812.317 10.816 810.777 12.02 810.203 12.174C810.021 12.23 809.447 12.286 809.307 12.16C809.223 12.09 808.859 11.138 808.845 10.956C808.789 10.452 808.985 9.682 809.013 9.164C808.789 9.206 808.649 9.738 808.551 9.836C808.537 9.85 808.467 9.752 808.411 9.78C808.397 9.794 808.383 9.99 808.355 9.976C807.907 9.864 808.215 9.248 808.397 8.982C809.097 8.002 809.265 8.422 809.643 6.756C809.853 5.832 809.867 5.776 809.377 5.02C809.685 4.796 809.811 4.362 810.091 4.096C810.721 3.466 811.883 3.172 812.653 3.2ZM816.304 3.284L816.542 3.914C816.262 3.97 816.416 4.656 816.388 4.978C816.262 6.854 816.29 9.052 816.388 10.942C816.444 11.936 816.682 12.888 816.64 13.882L816.43 13.924C816.206 12.79 815.87 11.656 815.968 10.48L814.554 11.082C814.428 11.362 814.428 12.482 814.148 12.566L813.7 12.58L813.868 11.32C813.672 11.558 812.86 11.544 812.944 11.194C812.986 11.012 813.91 10.998 814.162 10.312C814.596 9.122 814.638 7.47 815.002 6.224C815.38 5.608 815.478 3.774 815.8 3.312C815.912 3.13 816.164 3.214 816.304 3.284ZM815.884 5.86C815.646 5.818 815.744 5.916 815.702 6.056C815.282 7.47 815.072 8.954 814.708 10.396C814.932 10.368 815.814 10.256 815.87 10.088L815.884 5.86ZM816.938 13.126C816.854 12.72 817.33 12.678 817.554 12.44C819.612 10.354 820.144 8.772 819.416 5.86L818.884 4.404C818.646 6.042 818.282 7.68 818.03 9.318C817.946 9.864 817.988 10.522 817.862 11.082C817.75 11.614 817.778 11.838 817.162 11.726C817.092 11.67 817.232 10.242 817.274 10.06C817.554 8.618 817.834 7.12 818.114 5.622C818.24 5.02 818.184 4.292 818.562 3.704L818.24 3.648L818.338 3.046C818.744 2.864 818.926 3.172 819.122 3.466C820.102 4.922 820.732 8.31 820.06 9.934C819.78 10.592 818.128 12.692 817.54 13.028C817.33 13.14 817.176 13.154 816.938 13.126ZM825.138 3.2C825.166 3.438 825.026 3.55 824.9 3.648C824.466 3.956 823.584 4.194 823.094 4.376L823.36 5.076L823.01 5.272L822.478 7.638C823.122 7.274 823.612 6.812 824.34 6.826C824.34 6.91 824.354 7.036 824.34 7.106C824.242 7.4 822.576 8.184 822.296 8.506C821.974 8.884 821.666 11.53 822.352 11.614C822.408 11.614 823.206 11.306 823.304 11.236C823.71 10.984 824.228 10.27 824.564 9.864C824.802 10.816 823.262 12.02 822.688 12.174C822.506 12.23 821.932 12.286 821.792 12.16C821.708 12.09 821.344 11.138 821.33 10.956C821.274 10.452 821.47 9.682 821.498 9.164C821.274 9.206 821.134 9.738 821.036 9.836C821.022 9.85 820.952 9.752 820.896 9.78C820.882 9.794 820.868 9.99 820.84 9.976C820.392 9.864 820.7 9.248 820.882 8.982C821.582 8.002 821.75 8.422 822.128 6.756C822.338 5.832 822.352 5.776 821.862 5.02C822.17 4.796 822.296 4.362 822.576 4.096C823.206 3.466 824.368 3.172 825.138 3.2ZM829.168 4.012C829.868 5.93 828.902 8.086 827.768 9.304C827.586 9.5 827.082 9.738 826.872 9.976L826.816 10.2C827.39 10.326 827.796 10.956 828.258 11.362C828.72 11.768 829.532 12.006 829.588 12.888L829.196 12.944C828.678 12.426 828.104 12.076 827.572 11.628C827.446 11.53 827.418 11.348 827.32 11.278C827.11 11.096 826.382 10.536 826.158 10.676L825.864 11.474C825.192 11.796 825.458 10.48 825.556 10.032C825.808 8.758 826.326 6.896 826.83 5.748C827.166 4.992 828.566 2.332 829.168 4.012ZM826.942 7.288C826.816 7.666 826.116 9.64 826.242 9.878C827.74 8.772 829.602 6.63 828.566 4.166C828.412 4.18 828.314 4.32 828.202 4.432C827.544 5.104 827.25 6.336 826.942 7.288Z" fill="black"/>
<path d="M1644 9L849 8.99997" stroke="black" stroke-linecap="round"/>
<path d="M1 9L783 9" stroke="black" stroke-linecap="round"/>
</svg>
