<svg width="27" height="12" viewBox="0 0 27 12" fill="none" xmlns="http://www.w3.org/2000/svg">
<path d="M2.338 0.177999C2.674 1.102 2.38 1.942 2.338 2.824L2.114 7.136L2.968 6.884C3.024 6.562 2.954 6.226 2.982 5.904C3.08 4.868 3.22 3.09 3.43 2.152C3.458 2.068 4.004 0.794 4.06 0.695999C4.214 0.429999 4.508 0.219999 4.816 0.289999C4.928 0.668 4.634 0.807999 4.55 1.018C3.92 2.642 3.766 4.784 3.738 6.548C5.6 6.52 4.172 6.926 3.85 7.318C3.262 8.032 4.088 10.342 3.738 11.266C2.926 11.196 3.262 10.412 3.192 9.796C3.122 9.082 2.828 8.284 3.094 7.612L2.03 8.158C1.974 8.886 2.03 9.628 2.044 10.356C2.058 10.496 2.142 10.552 1.96 10.678C1.33 10.832 1.302 8.83 1.26 8.438L0.882 8.536C0.322 7.962 1.176 7.892 1.344 7.402C1.624 6.562 1.512 5.036 1.582 4.126C1.624 3.608 1.75 2.992 1.792 2.474C1.848 1.774 1.512 0.233999 2.338 0.177999ZM9.65278 1.2C9.68078 1.438 9.54078 1.55 9.41478 1.648C8.98078 1.956 8.09878 2.194 7.60878 2.376L7.87478 3.076L7.52478 3.272L6.99278 5.638C7.63678 5.274 8.12678 4.812 8.85478 4.826C8.85478 4.91 8.86878 5.036 8.85478 5.106C8.75678 5.4 7.09078 6.184 6.81078 6.506C6.48878 6.884 6.18078 9.53 6.86678 9.614C6.92278 9.614 7.72078 9.306 7.81878 9.236C8.22478 8.984 8.74278 8.27 9.07878 7.864C9.31678 8.816 7.77678 10.02 7.20278 10.174C7.02078 10.23 6.44678 10.286 6.30678 10.16C6.22278 10.09 5.85878 9.138 5.84478 8.956C5.78878 8.452 5.98478 7.682 6.01278 7.164C5.78878 7.206 5.64878 7.738 5.55078 7.836C5.53678 7.85 5.46678 7.752 5.41078 7.78C5.39678 7.794 5.38278 7.99 5.35478 7.976C4.90678 7.864 5.21478 7.248 5.39678 6.982C6.09678 6.002 6.26478 6.422 6.64278 4.756C6.85278 3.832 6.86678 3.776 6.37678 3.02C6.68478 2.796 6.81078 2.362 7.09078 2.096C7.72078 1.466 8.88278 1.172 9.65278 1.2ZM13.3044 1.284L13.5424 1.914C13.2624 1.97 13.4164 2.656 13.3884 2.978C13.2624 4.854 13.2904 7.052 13.3884 8.942C13.4444 9.936 13.6824 10.888 13.6404 11.882L13.4304 11.924C13.2064 10.79 12.8704 9.656 12.9684 8.48L11.5544 9.082C11.4284 9.362 11.4284 10.482 11.1484 10.566L10.7004 10.58L10.8684 9.32C10.6724 9.558 9.86038 9.544 9.94438 9.194C9.98638 9.012 10.9104 8.998 11.1624 8.312C11.5964 7.122 11.6384 5.47 12.0024 4.224C12.3804 3.608 12.4784 1.774 12.8004 1.312C12.9124 1.13 13.1644 1.214 13.3044 1.284ZM12.8844 3.86C12.6464 3.818 12.7444 3.916 12.7024 4.056C12.2824 5.47 12.0724 6.954 11.7084 8.396C11.9324 8.368 12.8144 8.256 12.8704 8.088L12.8844 3.86ZM13.9377 11.126C13.8537 10.72 14.3297 10.678 14.5537 10.44C16.6117 8.354 17.1437 6.772 16.4157 3.86L15.8837 2.404C15.6457 4.042 15.2817 5.68 15.0297 7.318C14.9457 7.864 14.9877 8.522 14.8617 9.082C14.7497 9.614 14.7777 9.838 14.1617 9.726C14.0917 9.67 14.2317 8.242 14.2737 8.06C14.5537 6.618 14.8337 5.12 15.1137 3.622C15.2397 3.02 15.1837 2.292 15.5617 1.704L15.2397 1.648L15.3377 1.046C15.7437 0.863999 15.9257 1.172 16.1217 1.466C17.1017 2.922 17.7317 6.31 17.0597 7.934C16.7797 8.592 15.1277 10.692 14.5397 11.028C14.3297 11.14 14.1757 11.154 13.9377 11.126ZM22.1385 1.2C22.1665 1.438 22.0265 1.55 21.9005 1.648C21.4665 1.956 20.5845 2.194 20.0945 2.376L20.3605 3.076L20.0105 3.272L19.4785 5.638C20.1225 5.274 20.6125 4.812 21.3405 4.826C21.3405 4.91 21.3545 5.036 21.3405 5.106C21.2425 5.4 19.5765 6.184 19.2965 6.506C18.9745 6.884 18.6665 9.53 19.3525 9.614C19.4085 9.614 20.2065 9.306 20.3045 9.236C20.7105 8.984 21.2285 8.27 21.5645 7.864C21.8025 8.816 20.2625 10.02 19.6885 10.174C19.5065 10.23 18.9325 10.286 18.7925 10.16C18.7085 10.09 18.3445 9.138 18.3305 8.956C18.2745 8.452 18.4705 7.682 18.4985 7.164C18.2745 7.206 18.1345 7.738 18.0365 7.836C18.0225 7.85 17.9525 7.752 17.8965 7.78C17.8825 7.794 17.8685 7.99 17.8405 7.976C17.3925 7.864 17.7005 7.248 17.8825 6.982C18.5825 6.002 18.7505 6.422 19.1285 4.756C19.3385 3.832 19.3525 3.776 18.8625 3.02C19.1705 2.796 19.2965 2.362 19.5765 2.096C20.2065 1.466 21.3685 1.172 22.1385 1.2ZM26.1681 2.012C26.8681 3.93 25.9021 6.086 24.7681 7.304C24.5861 7.5 24.0821 7.738 23.8721 7.976L23.8161 8.2C24.3901 8.326 24.7961 8.956 25.2581 9.362C25.7201 9.768 26.5321 10.006 26.5881 10.888L26.1961 10.944C25.6781 10.426 25.1041 10.076 24.5721 9.628C24.4461 9.53 24.4181 9.348 24.3201 9.278C24.1101 9.096 23.3821 8.536 23.1581 8.676L22.8641 9.474C22.1921 9.796 22.4581 8.48 22.5561 8.032C22.8081 6.758 23.3261 4.896 23.8301 3.748C24.1661 2.992 25.5661 0.332 26.1681 2.012ZM23.9421 5.288C23.8161 5.666 23.1161 7.64 23.2421 7.878C24.7401 6.772 26.6021 4.63 25.5661 2.166C25.4121 2.18 25.3141 2.32 25.2021 2.432C24.5441 3.104 24.2501 4.336 23.9421 5.288Z" fill="black"/>
</svg>
