<svg width="22" height="13" viewBox="0 0 22 13" fill="none" xmlns="http://www.w3.org/2000/svg">
<path d="M2.39779 0.669678C2.39779 2.70968 1.99734 5.21644 1.50439 7.18824C1.36517 7.74512 0.956857 12.0978 0.743338 11.8538C0.05835 11.071 4.79765 1.54743 5.24346 1.99324C7.3083 4.05808 3.53944 7.05776 7.16263 3.6477C9.39958 1.54233 5.76672 9.49571 6.86483 7.51913C7.12094 7.05812 7.8998 4.64959 8.81708 5.56687C9.1609 5.91069 8.66483 8.69349 9.31342 7.68457C10.2653 6.2038 10.9746 4.60188 11.7951 3.05209C12.6198 1.49426 12.428 4.05951 12.5562 4.50802C12.6926 4.98563 13.3485 4.81739 13.7143 4.83891C14.5619 4.88877 14.0068 5.51072 14.4422 5.89776C15.1289 6.50808 16.3815 3.38095 16.957 3.05209C18.5056 2.16721 17.1751 3.27022 18.0159 4.11095C18.7452 4.84028 20.7397 3.88685 21.4571 3.6477" stroke="black" stroke-linecap="round"/>
</svg>
