<svg width="24" height="151" viewBox="0 0 24 151" fill="none" xmlns="http://www.w3.org/2000/svg">
<path d="M9 3C9 18.2646 9 33.5291 9 48.7937C9 74.3248 11.1034 99.5421 15.0585 124.786C15.9971 130.778 16.7906 137.325 17.1053 143.352C17.2791 146.681 17.5734 145.52 15.4678 147.642C13.3591 149.767 12.3081 150.666 16.2047 149.457C18.3038 148.806 20.7902 147.807 23 147.807" stroke="black" stroke-linecap="round"/>
<path d="M6.24529 1.32892C8.16129 1.32892 15.1997 0.564702 10.293 1.36602C8.25858 1.69826 5.60009 2.58402 3.72581 3.33223C2.86494 3.67589 0.673798 4 1.04112 4" stroke="black" stroke-linecap="round"/>
<path d="M8.57427 30.7728C6.44599 31.0396 4.76193 34.9777 3.57572 36.5069C1.90896 38.6556 4.35022 35.1262 4.76181 34.5955C6.09426 32.8778 7.58531 31.3477 8.95552 29.6685C11.9093 26.0485 11.2878 29.0889 9.71801 31.5374C7.6301 34.794 7.08489 35.3748 10.4805 32.7267C12.8501 30.8787 9.05423 38.6308 8.57427 39.3527C7.86501 40.4195 5.34704 42.6657 6.62568 42.6657C7.30341 42.6657 8.18411 40.3513 8.74371 39.9473C9.33038 39.5238 11.5726 37.229 12.2173 37.229C13.1985 37.229 10.8065 40.8976 10.6923 41.0517C10.1915 41.7276 6.29796 47.5816 7.98122 45.8938C8.36667 45.5073 13.4342 39.6095 13.8693 41.1366C14.776 44.3186 10.6857 46.2844 10.1416 48.7396C9.63619 51.0201 11.4728 50.6158 10.4381 52.9871C9.56251 54.9939 6.37152 59.7076 6.37152 61.7368C6.37152 62.5815 10.1915 59.0609 10.8617 59.0609C11.55 59.0609 8.55796 63.1572 7.98122 63.8181C7.8619 63.9548 13.2067 60.2385 10.8617 62.8837C9.23626 64.7172 9.33676 66.7021 9.33676 69" stroke="black" stroke-linecap="round"/>
</svg>
