<svg width="86" height="42" viewBox="0 0 86 42" fill="none" xmlns="http://www.w3.org/2000/svg">
<path d="M11.2592 3.38C10.8872 3.236 10.8872 4.04 10.8392 4.412C10.6832 5.84 10.5032 7.808 10.5272 9.236C10.5392 9.668 10.7072 10.148 10.7072 10.592C10.4792 10.904 10.2512 10.544 10.0592 10.376C10.1312 9.836 9.9752 9.308 9.9632 8.792C9.9032 7.292 10.0352 5.372 10.2512 3.872C10.2632 3.74 10.4432 2.984 10.4912 2.96C10.8272 2.732 11.2592 2.9 11.2592 3.38ZM20.6301 1.604V2.432C20.3661 2.816 20.2701 3.512 20.1141 3.956C19.9461 4.436 19.6821 4.904 19.5261 5.408C19.0701 6.944 18.7941 8.624 18.2901 10.184C18.1341 10.652 17.8701 10.616 17.7381 11C16.9581 10.856 16.5981 9.62 16.5261 8.612L16.2381 10.736C15.9861 11.168 15.7701 10.976 15.5421 10.652C14.7981 9.584 15.0021 6.98 14.9901 5.564C15.0861 5.588 15.2181 5.528 15.3021 5.588C15.5421 5.78 15.4221 7.772 15.4461 8.276C15.4821 8.78 15.5421 9.668 15.7941 10.004L16.5861 6.548L16.9461 6.584C17.1501 6.86 17.0541 8.876 17.1261 9.38C17.1501 9.548 17.3541 10.052 17.4621 10.076C17.5101 9.98 17.7741 9.812 17.7861 9.8C17.8341 9.716 17.8461 9.488 17.9061 9.344C18.3381 8.3 18.5661 6.992 18.8901 5.864C19.2741 4.544 19.7541 3.344 20.2101 2.144C20.3301 1.82 20.2461 1.34 20.6301 1.604ZM22.7935 2.672L22.9975 3.212C22.7575 3.26 22.8895 3.848 22.8655 4.124C22.7575 5.732 22.7815 7.616 22.8655 9.236C22.9135 10.088 23.1175 10.904 23.0815 11.756L22.9015 11.792C22.7095 10.82 22.4215 9.848 22.5055 8.84L21.2935 9.356C21.1855 9.596 21.1855 10.556 20.9455 10.628L20.5615 10.64L20.7055 9.56C20.5375 9.764 19.8415 9.752 19.9135 9.452C19.9495 9.296 20.7415 9.284 20.9575 8.696C21.3295 7.676 21.3655 6.26 21.6775 5.192C22.0015 4.664 22.0855 3.092 22.3615 2.696C22.4575 2.54 22.6735 2.612 22.7935 2.672ZM22.4335 4.88C22.2295 4.844 22.3135 4.928 22.2775 5.048C21.9175 6.26 21.7375 7.532 21.4255 8.768C21.6175 8.744 22.3735 8.648 22.4215 8.504L22.4335 4.88ZM27.0444 2.768C27.2484 2.936 27.1764 3.476 26.9964 3.608C26.7804 3.776 26.6724 3.38 26.5044 3.452C26.1924 3.824 24.8484 4.892 24.8124 5.312C24.7884 5.528 25.7364 6.596 25.9284 6.956C26.6724 8.336 26.6604 8.948 25.5924 9.992C25.0164 10.544 24.1164 11.192 23.3364 11.144V10.58C23.8284 10.496 24.2004 10.352 24.6204 10.064C24.7764 9.944 25.8924 8.912 25.9044 8.828C26.1084 7.784 24.9924 6.512 24.3204 5.84C24.0444 5.192 25.0524 3.968 25.4724 3.572C25.7484 3.308 26.7204 2.504 27.0444 2.768ZM34.6025 2.768C34.8065 2.936 34.7345 3.476 34.5545 3.608C34.3385 3.776 34.2305 3.38 34.0625 3.452C33.7505 3.824 32.4065 4.892 32.3705 5.312C32.3465 5.528 33.2945 6.596 33.4865 6.956C34.2305 8.336 34.2185 8.948 33.1505 9.992C32.5745 10.544 31.6745 11.192 30.8945 11.144V10.58C31.3865 10.496 31.7585 10.352 32.1785 10.064C32.3345 9.944 33.4505 8.912 33.4625 8.828C33.6665 7.784 32.5505 6.512 31.8785 5.84C31.6025 5.192 32.6105 3.968 33.0305 3.572C33.3065 3.308 34.2785 2.504 34.6025 2.768ZM35.8975 9.776C36.4015 10.328 37.5775 6.932 37.7455 6.296C37.9855 5.444 38.3575 3.968 38.1655 3.056L38.5015 2.888C39.0175 5.672 37.8055 7.604 37.2055 9.812L36.1015 10.952C35.8975 10.676 35.5015 10.436 35.3455 10.1C35.2615 9.932 35.1055 8.756 35.0935 8.528C35.0335 7.172 35.3695 5.36 35.5615 4.1C35.6455 3.512 35.4175 3.14 36.0295 2.828C36.3055 5.144 35.2375 7.496 35.8975 9.776ZM41.1719 6.224C41.0519 6.368 40.6199 6.596 40.4639 6.8C39.8879 7.496 39.8159 8.864 39.9359 9.716C39.9479 9.764 39.6959 9.764 39.6959 9.98C39.6959 10.28 40.3439 11.084 39.4079 10.868C38.6639 10.688 39.1079 8.72 39.1439 8.348C39.2999 6.86 39.5639 3.752 41.1119 2.828C42.2279 2.168 42.8159 3.38 42.6479 4.112C42.5519 4.556 41.5319 5.816 41.1719 6.224ZM41.7959 3.152C41.5679 3.104 41.5919 3.212 41.5199 3.284C41.2199 3.548 40.2959 5.036 40.3439 5.348C40.3559 5.468 40.4879 5.576 40.5239 5.696C40.6439 5.756 41.1839 5.192 41.2679 5.096C41.6639 4.652 42.0959 4.088 41.9759 3.5C41.9519 3.392 41.7119 3.296 41.7959 3.152ZM45.2304 6.224C45.1104 6.368 44.6784 6.596 44.5224 6.8C43.9464 7.496 43.8744 8.864 43.9944 9.716C44.0064 9.764 43.7544 9.764 43.7544 9.98C43.7544 10.28 44.4024 11.084 43.4664 10.868C42.7224 10.688 43.1664 8.72 43.2024 8.348C43.3584 6.86 43.6224 3.752 45.1704 2.828C46.2864 2.168 46.8744 3.38 46.7064 4.112C46.6104 4.556 45.5904 5.816 45.2304 6.224ZM45.8544 3.152C45.6264 3.104 45.6504 3.212 45.5784 3.284C45.2784 3.548 44.3544 5.036 44.4024 5.348C44.4144 5.468 44.5464 5.576 44.5824 5.696C44.7024 5.756 45.2424 5.192 45.3264 5.096C45.7224 4.652 46.1544 4.088 46.0344 3.5C46.0104 3.392 45.7704 3.296 45.8544 3.152ZM50.0688 3.62C50.3688 4.304 50.4528 5.708 50.4048 6.572C50.3088 8.9 48.6528 12.02 47.4288 10.136C47.0208 9.5 47.0808 8.18 47.1528 7.304C47.2008 6.836 47.4168 6.152 47.5488 5.72C47.8488 4.748 48.1848 4.28 48.5688 3.476C48.6528 3.32 48.6408 3.056 48.7128 2.984C49.0968 2.672 49.8048 3.044 50.0688 3.62ZM49.6008 3.896C48.7248 2.972 46.6848 8.72 47.9688 9.74C48.7008 10.316 49.7568 8.36 49.9488 7.172C50.0208 6.764 49.9248 5.012 49.8288 4.556C49.8168 4.484 49.6128 3.92 49.6008 3.896ZM54.4962 2.768C54.7002 2.936 54.6282 3.476 54.4482 3.608C54.2322 3.776 54.1242 3.38 53.9562 3.452C53.6442 3.824 52.3002 4.892 52.2642 5.312C52.2402 5.528 53.1882 6.596 53.3802 6.956C54.1242 8.336 54.1122 8.948 53.0442 9.992C52.4682 10.544 51.5682 11.192 50.7882 11.144V10.58C51.2802 10.496 51.6522 10.352 52.0722 10.064C52.2282 9.944 53.3442 8.912 53.3562 8.828C53.5602 7.784 52.4442 6.512 51.7722 5.84C51.4962 5.192 52.5042 3.968 52.9242 3.572C53.2002 3.308 54.1722 2.504 54.4962 2.768ZM58.8633 2.6C58.8873 2.804 58.7673 2.9 58.6593 2.984C58.2873 3.248 57.5313 3.452 57.1113 3.608L57.3393 4.208L57.0393 4.376L56.5833 6.404C57.1353 6.092 57.5553 5.696 58.1793 5.708C58.1793 5.78 58.1913 5.888 58.1793 5.948C58.0953 6.2 56.6673 6.872 56.4273 7.148C56.1513 7.472 55.8873 9.74 56.4753 9.812C56.5233 9.812 57.2073 9.548 57.2913 9.488C57.6393 9.272 58.0833 8.66 58.3713 8.312C58.5753 9.128 57.2553 10.16 56.7633 10.292C56.6073 10.34 56.1153 10.388 55.9953 10.28C55.9233 10.22 55.6113 9.404 55.5993 9.248C55.5513 8.816 55.7193 8.156 55.7433 7.712C55.5513 7.748 55.4313 8.204 55.3473 8.288C55.3353 8.3 55.2753 8.216 55.2273 8.24C55.2153 8.252 55.2033 8.42 55.1793 8.408C54.7953 8.312 55.0593 7.784 55.2153 7.556C55.8153 6.716 55.9593 7.076 56.2833 5.648C56.4633 4.856 56.4753 4.808 56.0553 4.16C56.3193 3.968 56.4273 3.596 56.6673 3.368C57.2073 2.828 58.2033 2.576 58.8633 2.6ZM14.3792 16.312C14.5112 17.056 14.1752 17.62 14.0192 18.304C13.7912 19.24 13.5632 20.176 13.3592 21.112C13.4792 21.232 15.1712 20.272 15.3992 20.884C15.3872 21.076 13.3832 21.724 13.1312 21.856C12.8432 23.044 12.6872 24.268 12.7232 25.504C12.6992 25.636 12.3392 25.516 12.2792 25.3C12.2552 25.24 12.1592 24.088 12.1592 24.028C12.1832 23.884 12.3272 23.788 12.3392 23.644C12.4112 23.104 12.2912 22.504 12.4352 21.94C11.6672 22.24 10.8632 22.36 10.0472 22.396L9.9512 21.94L12.7112 21.292C12.9152 20.368 13.0832 19.432 13.3112 18.52C13.4552 17.932 13.7552 17.452 13.8152 16.804C13.8512 16.384 13.5392 16.264 14.3792 16.312ZM18.7197 17.62C19.0197 18.304 19.1037 19.708 19.0557 20.572C18.9597 22.9 17.3037 26.02 16.0797 24.136C15.6717 23.5 15.7317 22.18 15.8037 21.304C15.8517 20.836 16.0677 20.152 16.1997 19.72C16.4997 18.748 16.8357 18.28 17.2197 17.476C17.3037 17.32 17.2917 17.056 17.3637 16.984C17.7477 16.672 18.4557 17.044 18.7197 17.62ZM18.2517 17.896C17.3757 16.972 15.3357 22.72 16.6197 23.74C17.3517 24.316 18.4077 22.36 18.5997 21.172C18.6717 20.764 18.5757 19.012 18.4797 18.556C18.4677 18.484 18.2637 17.92 18.2517 17.896ZM28.4502 15.604V16.432C28.1862 16.816 28.0902 17.512 27.9342 17.956C27.7662 18.436 27.5022 18.904 27.3462 19.408C26.8902 20.944 26.6142 22.624 26.1102 24.184C25.9542 24.652 25.6902 24.616 25.5582 25C24.7782 24.856 24.4182 23.62 24.3462 22.612L24.0582 24.736C23.8062 25.168 23.5902 24.976 23.3622 24.652C22.6182 23.584 22.8222 20.98 22.8102 19.564C22.9062 19.588 23.0382 19.528 23.1222 19.588C23.3622 19.78 23.2422 21.772 23.2662 22.276C23.3022 22.78 23.3622 23.668 23.6142 24.004L24.4062 20.548L24.7662 20.584C24.9702 20.86 24.8742 22.876 24.9462 23.38C24.9702 23.548 25.1742 24.052 25.2822 24.076C25.3302 23.98 25.5942 23.812 25.6062 23.8C25.6542 23.716 25.6662 23.488 25.7262 23.344C26.1582 22.3 26.3862 20.992 26.7102 19.864C27.0942 18.544 27.5742 17.344 28.0302 16.144C28.1502 15.82 28.0662 15.34 28.4502 15.604ZM32.0177 17.296C32.6177 18.94 31.7897 20.788 30.8177 21.832C30.6617 22 30.2297 22.204 30.0497 22.408L30.0017 22.6C30.4937 22.708 30.8417 23.248 31.2377 23.596C31.6337 23.944 32.3297 24.148 32.3777 24.904L32.0417 24.952C31.5977 24.508 31.1057 24.208 30.6497 23.824C30.5417 23.74 30.5177 23.584 30.4337 23.524C30.2537 23.368 29.6297 22.888 29.4377 23.008L29.1857 23.692C28.6097 23.968 28.8377 22.84 28.9217 22.456C29.1377 21.364 29.5817 19.768 30.0137 18.784C30.3017 18.136 31.5017 15.856 32.0177 17.296ZM30.1097 20.104C30.0017 20.428 29.4017 22.12 29.5097 22.324C30.7937 21.376 32.3897 19.54 31.5017 17.428C31.3697 17.44 31.2857 17.56 31.1897 17.656C30.6257 18.232 30.3737 19.288 30.1097 20.104ZM34.0629 17.38C33.6909 17.236 33.6909 18.04 33.6429 18.412C33.4869 19.84 33.3069 21.808 33.3309 23.236C33.3429 23.668 33.5109 24.148 33.5109 24.592C33.2829 24.904 33.0549 24.544 32.8629 24.376C32.9349 23.836 32.7789 23.308 32.7669 22.792C32.7069 21.292 32.8389 19.372 33.0549 17.872C33.0669 17.74 33.2469 16.984 33.2949 16.96C33.6309 16.732 34.0629 16.9 34.0629 17.38ZM38.8508 16.312C38.9828 17.056 38.6468 17.62 38.4908 18.304C38.2628 19.24 38.0348 20.176 37.8308 21.112C37.9508 21.232 39.6428 20.272 39.8708 20.884C39.8588 21.076 37.8548 21.724 37.6028 21.856C37.3148 23.044 37.1588 24.268 37.1948 25.504C37.1708 25.636 36.8108 25.516 36.7508 25.3C36.7268 25.24 36.6308 24.088 36.6308 24.028C36.6548 23.884 36.7988 23.788 36.8108 23.644C36.8828 23.104 36.7628 22.504 36.9068 21.94C36.1388 22.24 35.3348 22.36 34.5188 22.396L34.4228 21.94L37.1828 21.292C37.3868 20.368 37.5548 19.432 37.7828 18.52C37.9268 17.932 38.2268 17.452 38.2868 16.804C38.3228 16.384 38.0108 16.264 38.8508 16.312ZM44.1033 16.6C44.1273 16.804 44.0073 16.9 43.8993 16.984C43.5273 17.248 42.7713 17.452 42.3513 17.608L42.5793 18.208L42.2793 18.376L41.8233 20.404C42.3753 20.092 42.7953 19.696 43.4193 19.708C43.4193 19.78 43.4313 19.888 43.4193 19.948C43.3353 20.2 41.9073 20.872 41.6673 21.148C41.3913 21.472 41.1273 23.74 41.7153 23.812C41.7633 23.812 42.4473 23.548 42.5313 23.488C42.8793 23.272 43.3233 22.66 43.6113 22.312C43.8153 23.128 42.4953 24.16 42.0033 24.292C41.8473 24.34 41.3553 24.388 41.2353 24.28C41.1633 24.22 40.8513 23.404 40.8393 23.248C40.7913 22.816 40.9593 22.156 40.9833 21.712C40.7913 21.748 40.6713 22.204 40.5873 22.288C40.5753 22.3 40.5153 22.216 40.4673 22.24C40.4553 22.252 40.4433 22.42 40.4193 22.408C40.0353 22.312 40.2993 21.784 40.4553 21.556C41.0553 20.716 41.1993 21.076 41.5233 19.648C41.7033 18.856 41.7153 18.808 41.2953 18.16C41.5593 17.968 41.6673 17.596 41.9073 17.368C42.4473 16.828 43.4433 16.576 44.1033 16.6ZM51.5403 16.768C51.7443 16.936 51.6723 17.476 51.4923 17.608C51.2763 17.776 51.1683 17.38 51.0003 17.452C50.6883 17.824 49.3443 18.892 49.3083 19.312C49.2843 19.528 50.2323 20.596 50.4243 20.956C51.1683 22.336 51.1563 22.948 50.0883 23.992C49.5123 24.544 48.6123 25.192 47.8323 25.144V24.58C48.3243 24.496 48.6963 24.352 49.1163 24.064C49.2723 23.944 50.3883 22.912 50.4003 22.828C50.6043 21.784 49.4883 20.512 48.8163 19.84C48.5403 19.192 49.5483 17.968 49.9683 17.572C50.2443 17.308 51.2163 16.504 51.5403 16.768ZM54.9954 17.62C55.2954 18.304 55.3794 19.708 55.3314 20.572C55.2354 22.9 53.5794 26.02 52.3554 24.136C51.9474 23.5 52.0074 22.18 52.0794 21.304C52.1274 20.836 52.3434 20.152 52.4754 19.72C52.7754 18.748 53.1114 18.28 53.4954 17.476C53.5794 17.32 53.5674 17.056 53.6394 16.984C54.0234 16.672 54.7314 17.044 54.9954 17.62ZM54.5274 17.896C53.6514 16.972 51.6114 22.72 52.8954 23.74C53.6274 24.316 54.6834 22.36 54.8754 21.172C54.9474 20.764 54.8514 19.012 54.7554 18.556C54.7434 18.484 54.5394 17.92 54.5274 17.896ZM57.5988 16.684C57.7788 16.84 57.6108 17.572 57.6108 17.824C57.5868 19.396 57.5148 21.016 57.9228 22.504C58.1268 22.552 58.0548 22.48 58.0908 22.348C58.4028 21.4 58.6428 20.356 58.9668 19.384C58.9908 19.288 58.9548 19.144 58.9788 19.12C59.0748 18.916 59.5548 18.544 59.6508 18.94C59.8308 19.732 59.4468 21.844 59.4228 22.78C59.3988 23.524 59.5428 24.196 59.5068 24.928C58.6908 24.436 59.1948 22.912 59.1588 22.096C59.1588 21.868 59.0148 21.748 59.0388 21.484C59.0868 21.04 59.4708 20.956 59.3388 20.416L59.2668 20.74L59.1108 20.524C58.9788 21.04 58.4988 23.128 58.1868 23.26C57.7548 23.44 57.5868 22.96 57.4428 22.48C57.1068 21.412 57.2268 20.272 57.2268 19.156C57.2148 19.024 57.2748 18.736 57.1428 18.76L56.4348 22.792C56.3628 23.332 56.5428 25.192 56.0148 25.132C55.6548 25.036 55.7028 23.992 55.7148 23.548C55.7508 22.6 55.9428 20.74 56.0748 19.852C56.1108 19.648 56.3388 19.468 56.3628 19.216L56.6628 19.312L57.2268 16.84C57.2748 16.684 57.5148 16.6 57.5988 16.684ZM63.9305 16.6C63.9545 16.804 63.8345 16.9 63.7265 16.984C63.3545 17.248 62.5985 17.452 62.1785 17.608L62.4065 18.208L62.1065 18.376L61.6505 20.404C62.2025 20.092 62.6225 19.696 63.2465 19.708C63.2465 19.78 63.2585 19.888 63.2465 19.948C63.1625 20.2 61.7345 20.872 61.4945 21.148C61.2185 21.472 60.9545 23.74 61.5425 23.812C61.5905 23.812 62.2745 23.548 62.3585 23.488C62.7065 23.272 63.1505 22.66 63.4385 22.312C63.6425 23.128 62.3225 24.16 61.8305 24.292C61.6745 24.34 61.1825 24.388 61.0625 24.28C60.9905 24.22 60.6785 23.404 60.6665 23.248C60.6185 22.816 60.7865 22.156 60.8105 21.712C60.6185 21.748 60.4985 22.204 60.4145 22.288C60.4025 22.3 60.3425 22.216 60.2945 22.24C60.2825 22.252 60.2705 22.42 60.2465 22.408C59.8625 22.312 60.1265 21.784 60.2825 21.556C60.8825 20.716 61.0265 21.076 61.3505 19.648C61.5305 18.856 61.5425 18.808 61.1225 18.16C61.3865 17.968 61.4945 17.596 61.7345 17.368C62.2745 16.828 63.2705 16.576 63.9305 16.6ZM67.8884 16.312C68.0204 17.056 67.6844 17.62 67.5284 18.304C67.3004 19.24 67.0724 20.176 66.8684 21.112C66.9884 21.232 68.6804 20.272 68.9084 20.884C68.8964 21.076 66.8924 21.724 66.6404 21.856C66.3524 23.044 66.1964 24.268 66.2324 25.504C66.2084 25.636 65.8484 25.516 65.7884 25.3C65.7644 25.24 65.6684 24.088 65.6684 24.028C65.6924 23.884 65.8364 23.788 65.8484 23.644C65.9204 23.104 65.8004 22.504 65.9444 21.94C65.1764 22.24 64.3724 22.36 63.5564 22.396L63.4604 21.94L66.2204 21.292C66.4244 20.368 66.5924 19.432 66.8204 18.52C66.9644 17.932 67.2644 17.452 67.3244 16.804C67.3604 16.384 67.0484 16.264 67.8884 16.312ZM70.6689 15.724C70.9569 16.516 70.7049 17.236 70.6689 17.992L70.4769 21.688L71.2089 21.472C71.2569 21.196 71.1969 20.908 71.2209 20.632C71.3049 19.744 71.4249 18.22 71.6049 17.416C71.6289 17.344 72.0969 16.252 72.1449 16.168C72.2769 15.94 72.5289 15.76 72.7929 15.82C72.8889 16.144 72.6369 16.264 72.5649 16.444C72.0249 17.836 71.8929 19.672 71.8689 21.184C73.4649 21.16 72.2409 21.508 71.9649 21.844C71.4609 22.456 72.1689 24.436 71.8689 25.228C71.1729 25.168 71.4609 24.496 71.4009 23.968C71.3409 23.356 71.0889 22.672 71.3169 22.096L70.4049 22.564C70.3569 23.188 70.4049 23.824 70.4169 24.448C70.4289 24.568 70.5009 24.616 70.3449 24.724C69.8049 24.856 69.7809 23.14 69.7449 22.804L69.4209 22.888C68.9409 22.396 69.6729 22.336 69.8169 21.916C70.0569 21.196 69.9609 19.888 70.0209 19.108C70.0569 18.664 70.1649 18.136 70.2009 17.692C70.2489 17.092 69.9609 15.772 70.6689 15.724ZM74.4908 17.38C74.1188 17.236 74.1188 18.04 74.0708 18.412C73.9148 19.84 73.7348 21.808 73.7588 23.236C73.7708 23.668 73.9388 24.148 73.9388 24.592C73.7108 24.904 73.4828 24.544 73.2908 24.376C73.3628 23.836 73.2068 23.308 73.1948 22.792C73.1348 21.292 73.2668 19.372 73.4828 17.872C73.4948 17.74 73.6748 16.984 73.7228 16.96C74.0588 16.732 74.4908 16.9 74.4908 17.38ZM75.7626 19.912C75.6786 19.888 75.6906 20.032 75.6666 20.14C75.4386 21.544 75.3546 23.26 75.3546 24.724C74.8506 25.672 74.8146 23.86 74.8506 23.224C74.9466 21.604 75.2586 19.54 75.4386 17.872C75.4866 17.44 75.3426 17.008 75.8586 17.248C76.0746 19.036 76.1226 21.808 77.2626 22.624C77.6826 20.644 77.4786 18.472 77.6586 16.408C77.6946 16.168 77.9946 16.18 78.0666 16.348C78.1866 16.636 77.9946 17.404 77.9826 17.776C77.9346 19.252 78.1266 21.04 77.7666 22.408C77.5626 23.2 77.4066 23.572 76.8906 23.104C76.2906 22.552 75.8346 21.052 75.7626 19.912ZM82.0634 16.984C82.1714 18.232 81.6314 17.296 81.4874 17.332C81.0794 17.764 80.5754 18.328 80.4074 18.988L80.2394 18.892C79.7354 20.176 78.7034 21.928 79.0514 23.452C79.0874 23.644 79.3874 23.98 79.5434 24.016C80.2034 24.172 81.2714 22.456 81.1994 21.628C80.9594 22.108 80.5754 21.94 80.1794 22.096C79.6874 22.288 79.5794 22.852 79.1234 22.816C78.8594 22.492 80.3714 20.884 81.1274 21.304C81.1514 21.316 81.4994 21.796 81.4994 21.82C81.7994 23.008 79.9394 25.972 78.7994 24.124C78.1274 23.032 78.6074 21.412 79.0394 20.272C79.3394 19.48 80.6474 16.996 81.2954 16.852C81.5474 16.792 81.8234 16.852 82.0634 16.984ZM11.2592 31.38C10.8872 31.236 10.8872 32.04 10.8392 32.412C10.6832 33.84 10.5032 35.808 10.5272 37.236C10.5392 37.668 10.7072 38.148 10.7072 38.592C10.4792 38.904 10.2512 38.544 10.0592 38.376C10.1312 37.836 9.9752 37.308 9.9632 36.792C9.9032 35.292 10.0352 33.372 10.2512 31.872C10.2632 31.74 10.4432 30.984 10.4912 30.96C10.8272 30.732 11.2592 30.9 11.2592 31.38ZM13.503 30.684C13.683 30.84 13.515 31.572 13.515 31.824C13.491 33.396 13.419 35.016 13.827 36.504C14.031 36.552 13.959 36.48 13.995 36.348C14.307 35.4 14.547 34.356 14.871 33.384C14.895 33.288 14.859 33.144 14.883 33.12C14.979 32.916 15.459 32.544 15.555 32.94C15.735 33.732 15.351 35.844 15.327 36.78C15.303 37.524 15.447 38.196 15.411 38.928C14.595 38.436 15.099 36.912 15.063 36.096C15.063 35.868 14.919 35.748 14.943 35.484C14.991 35.04 15.375 34.956 15.243 34.416L15.171 34.74L15.015 34.524C14.883 35.04 14.403 37.128 14.091 37.26C13.659 37.44 13.491 36.96 13.347 36.48C13.011 35.412 13.131 34.272 13.131 33.156C13.119 33.024 13.179 32.736 13.047 32.76L12.339 36.792C12.267 37.332 12.447 39.192 11.919 39.132C11.559 39.036 11.607 37.992 11.619 37.548C11.655 36.6 11.847 34.74 11.979 33.852C12.015 33.648 12.243 33.468 12.267 33.216L12.567 33.312L13.131 30.84C13.179 30.684 13.419 30.6 13.503 30.684ZM18.1427 34.224C18.0227 34.368 17.5907 34.596 17.4347 34.8C16.8587 35.496 16.7867 36.864 16.9067 37.716C16.9187 37.764 16.6667 37.764 16.6667 37.98C16.6667 38.28 17.3147 39.084 16.3787 38.868C15.6347 38.688 16.0787 36.72 16.1147 36.348C16.2707 34.86 16.5347 31.752 18.0827 30.828C19.1987 30.168 19.7867 31.38 19.6187 32.112C19.5227 32.556 18.5027 33.816 18.1427 34.224ZM18.7667 31.152C18.5387 31.104 18.5627 31.212 18.4907 31.284C18.1907 31.548 17.2667 33.036 17.3147 33.348C17.3267 33.468 17.4587 33.576 17.4947 33.696C17.6147 33.756 18.1547 33.192 18.2387 33.096C18.6347 32.652 19.0667 32.088 18.9467 31.5C18.9227 31.392 18.6827 31.296 18.7667 31.152ZM22.9811 31.62C23.2811 32.304 23.3651 33.708 23.3171 34.572C23.2211 36.9 21.5651 40.02 20.3411 38.136C19.9331 37.5 19.9931 36.18 20.0651 35.304C20.1131 34.836 20.3291 34.152 20.4611 33.72C20.7611 32.748 21.0971 32.28 21.4811 31.476C21.5651 31.32 21.5531 31.056 21.6251 30.984C22.0091 30.672 22.7171 31.044 22.9811 31.62ZM22.5131 31.896C21.6371 30.972 19.5971 36.72 20.8811 37.74C21.6131 38.316 22.6691 36.36 22.8611 35.172C22.9331 34.764 22.8371 33.012 22.7411 32.556C22.7291 32.484 22.5251 31.92 22.5131 31.896ZM26.9046 31.296C27.5046 32.94 26.6766 34.788 25.7046 35.832C25.5486 36 25.1166 36.204 24.9366 36.408L24.8886 36.6C25.3806 36.708 25.7286 37.248 26.1246 37.596C26.5206 37.944 27.2166 38.148 27.2646 38.904L26.9286 38.952C26.4846 38.508 25.9926 38.208 25.5366 37.824C25.4286 37.74 25.4046 37.584 25.3206 37.524C25.1406 37.368 24.5166 36.888 24.3246 37.008L24.0726 37.692C23.4966 37.968 23.7246 36.84 23.8086 36.456C24.0246 35.364 24.4686 33.768 24.9006 32.784C25.1886 32.136 26.3886 29.856 26.9046 31.296ZM24.9966 34.104C24.8886 34.428 24.2886 36.12 24.3966 36.324C25.6806 35.376 27.2766 33.54 26.3886 31.428C26.2566 31.44 26.1726 31.56 26.0766 31.656C25.5126 32.232 25.2606 33.288 24.9966 34.104ZM32.0698 30.312C32.2018 31.056 31.8658 31.62 31.7098 32.304C31.4818 33.24 31.2538 34.176 31.0498 35.112C31.1698 35.232 32.8618 34.272 33.0898 34.884C33.0778 35.076 31.0738 35.724 30.8218 35.856C30.5338 37.044 30.3778 38.268 30.4138 39.504C30.3898 39.636 30.0298 39.516 29.9698 39.3C29.9458 39.24 29.8498 38.088 29.8498 38.028C29.8738 37.884 30.0178 37.788 30.0298 37.644C30.1018 37.104 29.9818 36.504 30.1258 35.94C29.3578 36.24 28.5538 36.36 27.7378 36.396L27.6418 35.94L30.4018 35.292C30.6058 34.368 30.7738 33.432 31.0018 32.52C31.1458 31.932 31.4458 31.452 31.5058 30.804C31.5418 30.384 31.2298 30.264 32.0698 30.312ZM35.6064 30.672L35.8104 31.212C35.5704 31.26 35.7024 31.848 35.6784 32.124C35.5704 33.732 35.5944 35.616 35.6784 37.236C35.7264 38.088 35.9304 38.904 35.8944 39.756L35.7144 39.792C35.5224 38.82 35.2344 37.848 35.3184 36.84L34.1064 37.356C33.9984 37.596 33.9984 38.556 33.7584 38.628L33.3744 38.64L33.5184 37.56C33.3504 37.764 32.6544 37.752 32.7264 37.452C32.7624 37.296 33.5544 37.284 33.7704 36.696C34.1424 35.676 34.1784 34.26 34.4904 33.192C34.8144 32.664 34.8984 31.092 35.1744 30.696C35.2704 30.54 35.4864 30.612 35.6064 30.672ZM35.2464 32.88C35.0424 32.844 35.1264 32.928 35.0904 33.048C34.7304 34.26 34.5504 35.532 34.2384 36.768C34.4304 36.744 35.1864 36.648 35.2344 36.504L35.2464 32.88ZM37.1812 33.912C37.0972 33.888 37.1092 34.032 37.0852 34.14C36.8572 35.544 36.7732 37.26 36.7732 38.724C36.2692 39.672 36.2332 37.86 36.2692 37.224C36.3652 35.604 36.6772 33.54 36.8572 31.872C36.9052 31.44 36.7612 31.008 37.2772 31.248C37.4932 33.036 37.5412 35.808 38.6812 36.624C39.1012 34.644 38.8972 32.472 39.0772 30.408C39.1132 30.168 39.4132 30.18 39.4852 30.348C39.6052 30.636 39.4132 31.404 39.4012 31.776C39.3532 33.252 39.5452 35.04 39.1852 36.408C38.9812 37.2 38.8252 37.572 38.3092 37.104C37.7092 36.552 37.2532 35.052 37.1812 33.912ZM44.322 30.312C44.454 31.056 44.118 31.62 43.962 32.304C43.734 33.24 43.506 34.176 43.302 35.112C43.422 35.232 45.114 34.272 45.342 34.884C45.33 35.076 43.326 35.724 43.074 35.856C42.786 37.044 42.63 38.268 42.666 39.504C42.642 39.636 42.282 39.516 42.222 39.3C42.198 39.24 42.102 38.088 42.102 38.028C42.126 37.884 42.27 37.788 42.282 37.644C42.354 37.104 42.234 36.504 42.378 35.94C41.61 36.24 40.806 36.36 39.99 36.396L39.894 35.94L42.654 35.292C42.858 34.368 43.026 33.432 43.254 32.52C43.398 31.932 43.698 31.452 43.758 30.804C43.794 30.384 43.482 30.264 44.322 30.312ZM50.4616 29.724C50.7496 30.516 50.4976 31.236 50.4616 31.992L50.2696 35.688L51.0016 35.472C51.0496 35.196 50.9896 34.908 51.0136 34.632C51.0976 33.744 51.2176 32.22 51.3976 31.416C51.4216 31.344 51.8896 30.252 51.9376 30.168C52.0696 29.94 52.3216 29.76 52.5856 29.82C52.6816 30.144 52.4296 30.264 52.3576 30.444C51.8176 31.836 51.6856 33.672 51.6616 35.184C53.2576 35.16 52.0336 35.508 51.7576 35.844C51.2536 36.456 51.9616 38.436 51.6616 39.228C50.9656 39.168 51.2536 38.496 51.1936 37.968C51.1336 37.356 50.8816 36.672 51.1096 36.096L50.1976 36.564C50.1496 37.188 50.1976 37.824 50.2096 38.448C50.2216 38.568 50.2936 38.616 50.1376 38.724C49.5976 38.856 49.5736 37.14 49.5376 36.804L49.2136 36.888C48.7336 36.396 49.4656 36.336 49.6096 35.916C49.8496 35.196 49.7536 33.888 49.8136 33.108C49.8496 32.664 49.9576 32.136 49.9936 31.692C50.0416 31.092 49.7536 29.772 50.4616 29.724ZM56.8514 30.6C56.8754 30.804 56.7554 30.9 56.6474 30.984C56.2754 31.248 55.5194 31.452 55.0994 31.608L55.3274 32.208L55.0274 32.376L54.5714 34.404C55.1234 34.092 55.5434 33.696 56.1674 33.708C56.1674 33.78 56.1794 33.888 56.1674 33.948C56.0834 34.2 54.6554 34.872 54.4154 35.148C54.1394 35.472 53.8754 37.74 54.4634 37.812C54.5114 37.812 55.1954 37.548 55.2794 37.488C55.6274 37.272 56.0714 36.66 56.3594 36.312C56.5634 37.128 55.2434 38.16 54.7514 38.292C54.5954 38.34 54.1034 38.388 53.9834 38.28C53.9114 38.22 53.5994 37.404 53.5874 37.248C53.5394 36.816 53.7074 36.156 53.7314 35.712C53.5394 35.748 53.4194 36.204 53.3354 36.288C53.3234 36.3 53.2634 36.216 53.2154 36.24C53.2034 36.252 53.1914 36.42 53.1674 36.408C52.7834 36.312 53.0474 35.784 53.2034 35.556C53.8034 34.716 53.9474 35.076 54.2714 33.648C54.4514 32.856 54.4634 32.808 54.0434 32.16C54.3074 31.968 54.4154 31.596 54.6554 31.368C55.1954 30.828 56.1914 30.576 56.8514 30.6ZM60.4254 31.296C61.0254 32.94 60.1974 34.788 59.2254 35.832C59.0694 36 58.6374 36.204 58.4574 36.408L58.4094 36.6C58.9014 36.708 59.2494 37.248 59.6454 37.596C60.0414 37.944 60.7374 38.148 60.7854 38.904L60.4494 38.952C60.0054 38.508 59.5134 38.208 59.0574 37.824C58.9494 37.74 58.9254 37.584 58.8414 37.524C58.6614 37.368 58.0374 36.888 57.8454 37.008L57.5934 37.692C57.0174 37.968 57.2454 36.84 57.3294 36.456C57.5454 35.364 57.9894 33.768 58.4214 32.784C58.7094 32.136 59.9094 29.856 60.4254 31.296ZM58.5174 34.104C58.4094 34.428 57.8094 36.12 57.9174 36.324C59.2014 35.376 60.7974 33.54 59.9094 31.428C59.7774 31.44 59.6934 31.56 59.5974 31.656C59.0334 32.232 58.7814 33.288 58.5174 34.104ZM65.0386 30.6C65.0626 30.804 64.9426 30.9 64.8346 30.984C64.4626 31.248 63.7066 31.452 63.2866 31.608L63.5146 32.208L63.2146 32.376L62.7586 34.404C63.3106 34.092 63.7306 33.696 64.3546 33.708C64.3546 33.78 64.3666 33.888 64.3546 33.948C64.2706 34.2 62.8426 34.872 62.6026 35.148C62.3266 35.472 62.0626 37.74 62.6506 37.812C62.6986 37.812 63.3826 37.548 63.4666 37.488C63.8146 37.272 64.2586 36.66 64.5466 36.312C64.7506 37.128 63.4306 38.16 62.9386 38.292C62.7826 38.34 62.2906 38.388 62.1706 38.28C62.0986 38.22 61.7866 37.404 61.7746 37.248C61.7266 36.816 61.8946 36.156 61.9186 35.712C61.7266 35.748 61.6066 36.204 61.5226 36.288C61.5106 36.3 61.4506 36.216 61.4026 36.24C61.3906 36.252 61.3786 36.42 61.3546 36.408C60.9706 36.312 61.2346 35.784 61.3906 35.556C61.9906 34.716 62.1346 35.076 62.4586 33.648C62.6386 32.856 62.6506 32.808 62.2306 32.16C62.4946 31.968 62.6026 31.596 62.8426 31.368C63.3826 30.828 64.3786 30.576 65.0386 30.6Z" fill="black"/>
<path d="M8.76616 7.07765C22.5829 7.07765 36.3476 6.29672 50.1553 6.29672C51.6304 6.29672 53.1055 6.29672 54.5806 6.29672C55.1224 6.29672 58.5297 6.03641 57.1692 6.03641C52.6529 6.03641 48.2836 6.32438 43.7922 6.81734C35.4542 7.73248 27.0668 7.67963 18.7158 8.37919C13.1984 8.84138 -3.4229 8.89981 2.11381 8.89981C7.68469 8.89981 12.9389 8.2383 18.441 7.33796C27.343 5.88127 36.0326 4.73486 45.0649 4.73486C47.7354 4.73486 50.406 4.73486 53.0766 4.73486C53.4912 4.73486 53.9057 4.73486 54.3203 4.73486C56.0627 4.73486 50.8948 5.38239 49.2009 5.79056C42.4685 7.41282 35.6189 8.17141 28.7232 8.69735C26.588 8.8602 20.1609 8.89981 22.3022 8.89981" stroke="black" stroke-linecap="round"/>
<path d="M14.2327 20.6136C31.066 20.6136 47.8994 20.6136 64.7327 20.6136C66.1596 20.6136 67.5865 20.6136 69.0133 20.6136C69.4511 20.6136 70.7381 20.3533 70.3004 20.3533C68.8352 20.3533 67.3585 20.2869 65.9041 20.4834C56.8019 21.7134 47.8915 23.0243 38.7018 23.5348C29.3249 24.0558 19.7586 25.6767 10.4437 23.9831C9.62055 23.8335 7.14987 23.4306 7.98526 23.477C11.7803 23.6878 15.4629 24.0838 19.2943 23.7373C27.3557 23.0081 35.2547 20.8425 43.1559 19.1674C49.2445 17.8766 55.3902 17.0349 61.5511 16.1883C65.2572 15.6791 68.8136 15.4074 72.542 15.4074C74.2594 15.4074 79.3133 15.0481 77.6903 15.6098C76.7057 15.9507 75.5812 16.037 74.5666 16.2462C71.923 16.791 69.3432 17.5944 66.7284 18.2563C62.3528 19.3641 57.9658 20.5218 53.5105 21.2643C47.023 22.3456 40.3112 21.9151 33.7559 21.9151C32.8882 21.9151 32.0205 21.9151 31.1528 21.9151C29.2972 21.9151 33.7391 21.9151 34.074 21.9151C45.1897 21.9151 56.1549 20.1184 67.2056 19.1819C72.9981 18.691 78.9554 19.0517 84.7765 19.0517" stroke="black" stroke-linecap="round"/>
<path d="M11.3693 34.1496C20.4994 34.1496 29.6295 34.1496 38.7596 34.1496C44.4275 34.1496 50.0246 34.6702 55.6797 34.6702C57.6176 34.6702 63.4311 34.6702 61.4933 34.6702C57.9213 34.6702 54.3492 34.6702 50.7772 34.6702C43.8725 34.6702 37.4804 36.3501 30.7768 37.7939C25.1051 39.0155 19.0962 38.5748 13.3216 38.5748C6.41491 38.5748 26.8911 35.9414 33.7414 35.0607C42.8183 33.8936 52.1929 33.629 61.3487 33.629C62.5442 33.629 63.7397 33.629 64.9352 33.629C65.3594 33.629 66.9822 33.8426 66.0342 33.3687" stroke="black" stroke-linecap="round"/>
</svg>
